<mxfile host="app.diagrams.net" modified="2022-04-24T03:23:32.181Z" agent="5.0 (Windows NT 10.0; Win64; x64) AppleWebKit/537.36 (KHTML, like Gecko) Chrome/100.0.4896.127 Safari/537.36" etag="po6w7KhQx_q3xLTfjK8m" version="17.4.4" type="github">
  <diagram id="C5RBs43oDa-KdzZeNtuy" name="Page-1">
    <mxGraphModel dx="1549" dy="2975" grid="0" gridSize="10" guides="1" tooltips="1" connect="1" arrows="1" fold="1" page="1" pageScale="1" pageWidth="1169" pageHeight="1654" math="0" shadow="0">
      <root>
        <mxCell id="WIyWlLk6GJQsqaUBKTNV-0" />
        <mxCell id="WIyWlLk6GJQsqaUBKTNV-1" parent="WIyWlLk6GJQsqaUBKTNV-0" />
        <mxCell id="KldV-UdYdAW6FQme_F-Q-83" value="Vertical Container" style="swimlane;fontSize=14;" vertex="1" parent="WIyWlLk6GJQsqaUBKTNV-1">
          <mxGeometry x="172" y="885" width="990" height="744" as="geometry">
            <mxRectangle x="172" y="885" width="146" height="23" as="alternateBounds" />
          </mxGeometry>
        </mxCell>
        <mxCell id="KldV-UdYdAW6FQme_F-Q-85" value="框架结构" style="swimlane;fontSize=18;" vertex="1" parent="KldV-UdYdAW6FQme_F-Q-83">
          <mxGeometry x="613" y="50" width="350" height="658" as="geometry">
            <mxRectangle x="840" y="181" width="99" height="26" as="alternateBounds" />
          </mxGeometry>
        </mxCell>
        <mxCell id="KldV-UdYdAW6FQme_F-Q-86" value="&lt;font style=&quot;font-size: 14px&quot;&gt;&lt;b&gt;common/&lt;br&gt;公共方法封装&lt;/b&gt;&lt;/font&gt;" style="rounded=1;whiteSpace=wrap;html=1;fontSize=18;" vertex="1" parent="KldV-UdYdAW6FQme_F-Q-85">
          <mxGeometry x="19" y="61" width="120" height="60" as="geometry" />
        </mxCell>
        <mxCell id="KldV-UdYdAW6FQme_F-Q-87" value="&lt;b&gt;&lt;font style=&quot;font-size: 14px&quot;&gt;install/&lt;br&gt;二次封装源码&lt;/font&gt;&lt;/b&gt;" style="rounded=1;whiteSpace=wrap;html=1;fontSize=18;" vertex="1" parent="KldV-UdYdAW6FQme_F-Q-85">
          <mxGeometry x="19" y="152" width="120" height="60" as="geometry" />
        </mxCell>
        <mxCell id="KldV-UdYdAW6FQme_F-Q-88" value="&lt;b&gt;&lt;font style=&quot;font-size: 14px&quot;&gt;report/&lt;br&gt;测试报告数据&lt;/font&gt;&lt;/b&gt;" style="rounded=1;whiteSpace=wrap;html=1;fontSize=18;" vertex="1" parent="KldV-UdYdAW6FQme_F-Q-85">
          <mxGeometry x="19" y="400" width="120" height="60" as="geometry" />
        </mxCell>
        <mxCell id="KldV-UdYdAW6FQme_F-Q-89" value="&lt;font style=&quot;font-size: 14px&quot;&gt;&lt;b&gt;app/&lt;br&gt;具体测试应用&lt;/b&gt;&lt;/font&gt;" style="rounded=1;whiteSpace=wrap;html=1;fontSize=18;" vertex="1" parent="KldV-UdYdAW6FQme_F-Q-85">
          <mxGeometry x="198" y="237" width="120" height="60" as="geometry" />
        </mxCell>
        <mxCell id="KldV-UdYdAW6FQme_F-Q-90" value="&lt;font style=&quot;font-size: 14px&quot;&gt;&lt;b&gt;config.ini&lt;br&gt;全局配置文件&lt;/b&gt;&lt;/font&gt;" style="rounded=1;whiteSpace=wrap;html=1;fontSize=18;" vertex="1" parent="KldV-UdYdAW6FQme_F-Q-85">
          <mxGeometry x="19" y="482" width="120" height="60" as="geometry" />
        </mxCell>
        <mxCell id="KldV-UdYdAW6FQme_F-Q-91" value="&lt;b&gt;&lt;font style=&quot;font-size: 14px&quot;&gt;conftest.py&lt;br&gt;前置后置处理&lt;/font&gt;&lt;/b&gt;" style="whiteSpace=wrap;html=1;rounded=1;" vertex="1" parent="KldV-UdYdAW6FQme_F-Q-85">
          <mxGeometry x="19" y="240" width="120" height="60" as="geometry" />
        </mxCell>
        <mxCell id="KldV-UdYdAW6FQme_F-Q-92" value="&lt;b&gt;&lt;font style=&quot;font-size: 14px&quot;&gt;pytest.ini&lt;br&gt;pytest全局配置&lt;/font&gt;&lt;/b&gt;" style="whiteSpace=wrap;html=1;rounded=1;" vertex="1" parent="KldV-UdYdAW6FQme_F-Q-85">
          <mxGeometry x="19" y="324" width="120" height="60" as="geometry" />
        </mxCell>
        <mxCell id="KldV-UdYdAW6FQme_F-Q-93" value="&lt;b&gt;&lt;font style=&quot;font-size: 14px&quot;&gt;requirements.txt&lt;br&gt;项目所需第三方库&lt;/font&gt;&lt;/b&gt;" style="whiteSpace=wrap;html=1;rounded=1;" vertex="1" parent="KldV-UdYdAW6FQme_F-Q-85">
          <mxGeometry x="19" y="571" width="120" height="60" as="geometry" />
        </mxCell>
        <mxCell id="KldV-UdYdAW6FQme_F-Q-94" value="&lt;font style=&quot;font-size: 14px&quot;&gt;&lt;b&gt;app/&lt;br&gt;具体测试应用&lt;/b&gt;&lt;/font&gt;" style="rounded=1;whiteSpace=wrap;html=1;fontSize=18;" vertex="1" parent="KldV-UdYdAW6FQme_F-Q-85">
          <mxGeometry x="196" y="61" width="120" height="60" as="geometry" />
        </mxCell>
        <mxCell id="KldV-UdYdAW6FQme_F-Q-95" value="&lt;font style=&quot;font-size: 14px&quot;&gt;&lt;b&gt;app/&lt;br&gt;具体测试应用&lt;/b&gt;&lt;/font&gt;" style="rounded=1;whiteSpace=wrap;html=1;fontSize=18;" vertex="1" parent="KldV-UdYdAW6FQme_F-Q-85">
          <mxGeometry x="198" y="571" width="120" height="60" as="geometry" />
        </mxCell>
        <mxCell id="KldV-UdYdAW6FQme_F-Q-96" value="&lt;font style=&quot;font-size: 14px&quot;&gt;&lt;b&gt;app/&lt;br&gt;具体测试应用&lt;/b&gt;&lt;/font&gt;" style="rounded=1;whiteSpace=wrap;html=1;fontSize=18;" vertex="1" parent="KldV-UdYdAW6FQme_F-Q-85">
          <mxGeometry x="198" y="400" width="120" height="60" as="geometry" />
        </mxCell>
        <mxCell id="KldV-UdYdAW6FQme_F-Q-97" value="APP结构" style="swimlane;fontSize=14;startSize=28;" vertex="1" parent="KldV-UdYdAW6FQme_F-Q-83">
          <mxGeometry x="37" y="45" width="410" height="660" as="geometry">
            <mxRectangle x="356" y="832" width="146" height="23" as="alternateBounds" />
          </mxGeometry>
        </mxCell>
        <mxCell id="KldV-UdYdAW6FQme_F-Q-98" value="&lt;font style=&quot;font-size: 14px&quot;&gt;&lt;b&gt;app/run.py&lt;br&gt;程序运行入口&lt;/b&gt;&lt;/font&gt;" style="rounded=1;whiteSpace=wrap;html=1;" vertex="1" parent="KldV-UdYdAW6FQme_F-Q-97">
          <mxGeometry x="142" y="45" width="120" height="60" as="geometry" />
        </mxCell>
        <mxCell id="KldV-UdYdAW6FQme_F-Q-99" value="" style="edgeStyle=orthogonalEdgeStyle;rounded=0;orthogonalLoop=1;jettySize=auto;html=1;fontSize=14;" edge="1" parent="KldV-UdYdAW6FQme_F-Q-97" source="KldV-UdYdAW6FQme_F-Q-100" target="KldV-UdYdAW6FQme_F-Q-111">
          <mxGeometry relative="1" as="geometry" />
        </mxCell>
        <mxCell id="KldV-UdYdAW6FQme_F-Q-100" value="&lt;font style=&quot;font-size: 14px&quot;&gt;&lt;b&gt;case/&lt;br&gt;所有测试用例集&lt;/b&gt;&lt;/font&gt;" style="whiteSpace=wrap;html=1;rounded=1;" vertex="1" parent="KldV-UdYdAW6FQme_F-Q-97">
          <mxGeometry x="142" y="265" width="120" height="60" as="geometry" />
        </mxCell>
        <mxCell id="KldV-UdYdAW6FQme_F-Q-101" style="edgeStyle=orthogonalEdgeStyle;rounded=0;orthogonalLoop=1;jettySize=auto;html=1;exitX=0.5;exitY=1;exitDx=0;exitDy=0;entryX=0.5;entryY=0;entryDx=0;entryDy=0;fontSize=14;" edge="1" parent="KldV-UdYdAW6FQme_F-Q-97" source="KldV-UdYdAW6FQme_F-Q-103" target="KldV-UdYdAW6FQme_F-Q-112">
          <mxGeometry relative="1" as="geometry" />
        </mxCell>
        <mxCell id="KldV-UdYdAW6FQme_F-Q-102" style="edgeStyle=orthogonalEdgeStyle;rounded=0;orthogonalLoop=1;jettySize=auto;html=1;exitX=0.5;exitY=1;exitDx=0;exitDy=0;fontSize=14;" edge="1" parent="KldV-UdYdAW6FQme_F-Q-97" source="KldV-UdYdAW6FQme_F-Q-103" target="KldV-UdYdAW6FQme_F-Q-113">
          <mxGeometry relative="1" as="geometry" />
        </mxCell>
        <mxCell id="KldV-UdYdAW6FQme_F-Q-103" value="&lt;font style=&quot;font-size: 14px&quot;&gt;&lt;b&gt;page/&lt;br&gt;POM页面对象模型&lt;/b&gt;&lt;/font&gt;" style="whiteSpace=wrap;html=1;rounded=1;" vertex="1" parent="KldV-UdYdAW6FQme_F-Q-97">
          <mxGeometry x="142" y="450" width="120" height="60" as="geometry" />
        </mxCell>
        <mxCell id="KldV-UdYdAW6FQme_F-Q-104" style="edgeStyle=orthogonalEdgeStyle;rounded=0;orthogonalLoop=1;jettySize=auto;html=1;exitX=0.5;exitY=1;exitDx=0;exitDy=0;fontSize=18;" edge="1" parent="KldV-UdYdAW6FQme_F-Q-97" source="KldV-UdYdAW6FQme_F-Q-105" target="KldV-UdYdAW6FQme_F-Q-100">
          <mxGeometry relative="1" as="geometry" />
        </mxCell>
        <mxCell id="KldV-UdYdAW6FQme_F-Q-105" value="&lt;font style=&quot;font-size: 14px&quot;&gt;&lt;b&gt;config.ini&lt;br&gt;app全局配置文件&lt;/b&gt;&lt;/font&gt;" style="whiteSpace=wrap;html=1;rounded=1;" vertex="1" parent="KldV-UdYdAW6FQme_F-Q-97">
          <mxGeometry x="22" y="156" width="120" height="60" as="geometry" />
        </mxCell>
        <mxCell id="KldV-UdYdAW6FQme_F-Q-106" value="" style="edgeStyle=orthogonalEdgeStyle;rounded=0;orthogonalLoop=1;jettySize=auto;html=1;fontSize=18;" edge="1" parent="KldV-UdYdAW6FQme_F-Q-97" source="KldV-UdYdAW6FQme_F-Q-98" target="KldV-UdYdAW6FQme_F-Q-105">
          <mxGeometry relative="1" as="geometry" />
        </mxCell>
        <mxCell id="KldV-UdYdAW6FQme_F-Q-107" style="edgeStyle=orthogonalEdgeStyle;rounded=0;orthogonalLoop=1;jettySize=auto;html=1;exitX=0.5;exitY=1;exitDx=0;exitDy=0;fontSize=18;" edge="1" parent="KldV-UdYdAW6FQme_F-Q-97" source="KldV-UdYdAW6FQme_F-Q-108" target="KldV-UdYdAW6FQme_F-Q-100">
          <mxGeometry relative="1" as="geometry" />
        </mxCell>
        <mxCell id="KldV-UdYdAW6FQme_F-Q-108" value="&lt;font style=&quot;font-size: 14px&quot;&gt;&lt;b&gt;conftest.py&lt;br&gt;app前置后置处理&lt;/b&gt;&lt;/font&gt;" style="whiteSpace=wrap;html=1;rounded=1;" vertex="1" parent="KldV-UdYdAW6FQme_F-Q-97">
          <mxGeometry x="262" y="156" width="120" height="60" as="geometry" />
        </mxCell>
        <mxCell id="KldV-UdYdAW6FQme_F-Q-109" style="edgeStyle=orthogonalEdgeStyle;rounded=0;orthogonalLoop=1;jettySize=auto;html=1;exitX=0.5;exitY=1;exitDx=0;exitDy=0;fontSize=18;" edge="1" parent="KldV-UdYdAW6FQme_F-Q-97" source="KldV-UdYdAW6FQme_F-Q-98" target="KldV-UdYdAW6FQme_F-Q-108">
          <mxGeometry relative="1" as="geometry" />
        </mxCell>
        <mxCell id="KldV-UdYdAW6FQme_F-Q-110" value="" style="edgeStyle=orthogonalEdgeStyle;rounded=0;orthogonalLoop=1;jettySize=auto;html=1;fontSize=14;" edge="1" parent="KldV-UdYdAW6FQme_F-Q-97" source="KldV-UdYdAW6FQme_F-Q-111" target="KldV-UdYdAW6FQme_F-Q-103">
          <mxGeometry relative="1" as="geometry" />
        </mxCell>
        <mxCell id="KldV-UdYdAW6FQme_F-Q-111" value="&lt;font style=&quot;font-size: 14px&quot;&gt;&lt;b&gt;flow/&lt;br&gt;公共业务抽象流程&lt;/b&gt;&lt;/font&gt;" style="whiteSpace=wrap;html=1;rounded=1;" vertex="1" parent="KldV-UdYdAW6FQme_F-Q-97">
          <mxGeometry x="142" y="353" width="120" height="60" as="geometry" />
        </mxCell>
        <mxCell id="KldV-UdYdAW6FQme_F-Q-112" value="&lt;font style=&quot;font-size: 14px&quot;&gt;&lt;b&gt;element/&lt;br&gt;页面元素集&lt;/b&gt;&lt;/font&gt;" style="whiteSpace=wrap;html=1;rounded=1;" vertex="1" parent="KldV-UdYdAW6FQme_F-Q-97">
          <mxGeometry x="22" y="566" width="120" height="60" as="geometry" />
        </mxCell>
        <mxCell id="KldV-UdYdAW6FQme_F-Q-113" value="&lt;font style=&quot;font-size: 14px&quot;&gt;&lt;b&gt;image/&lt;br&gt;图片匹配集&lt;/b&gt;&lt;/font&gt;" style="rounded=1;whiteSpace=wrap;html=1;fontSize=18;" vertex="1" parent="KldV-UdYdAW6FQme_F-Q-97">
          <mxGeometry x="259" y="566" width="120" height="60" as="geometry" />
        </mxCell>
        <mxCell id="KldV-UdYdAW6FQme_F-Q-114" value="" style="endArrow=classic;html=1;rounded=0;fontSize=14;exitX=1;exitY=0.5;exitDx=0;exitDy=0;entryX=0;entryY=0.5;entryDx=0;entryDy=0;" edge="1" parent="KldV-UdYdAW6FQme_F-Q-83" source="KldV-UdYdAW6FQme_F-Q-103" target="KldV-UdYdAW6FQme_F-Q-86">
          <mxGeometry width="50" height="50" relative="1" as="geometry">
            <mxPoint x="574" y="917" as="sourcePoint" />
            <mxPoint x="561" y="59" as="targetPoint" />
            <Array as="points">
              <mxPoint x="527" y="525" />
              <mxPoint x="527" y="141" />
            </Array>
          </mxGeometry>
        </mxCell>
      </root>
    </mxGraphModel>
  </diagram>
</mxfile>
